<mxfile modified="2023-03-22T20:10:19.064Z" host="app.diagrams.net" agent="5.0 (Windows NT 10.0; Win64; x64) AppleWebKit/537.36 (KHTML, like Gecko) Chrome/111.0.0.0 Safari/537.36" etag="pRlr5GMepr9TIOe1UWAB" version="21.0.10" type="github">
  <diagram id="Ht1M8jgEwFfnCIfOTk4-" name="Page-1">
    <mxGraphModel dx="1714" dy="886" grid="0" gridSize="10" guides="0" tooltips="1" connect="0" arrows="0" fold="1" page="1" pageScale="1" pageWidth="1169" pageHeight="1654" background="none" math="0" shadow="0">
      <root>
        <mxCell id="0" />
        <mxCell id="1" parent="0" />
        <mxCell id="UEzPUAAOIrF-is8g5C7q-2" value="AWS Cloud" style="points=[[0,0],[0.25,0],[0.5,0],[0.75,0],[1,0],[1,0.25],[1,0.5],[1,0.75],[1,1],[0.75,1],[0.5,1],[0.25,1],[0,1],[0,0.75],[0,0.5],[0,0.25]];outlineConnect=0;gradientColor=none;html=1;whiteSpace=wrap;fontSize=12;fontStyle=0;shape=mxgraph.aws4.group;grIcon=mxgraph.aws4.group_aws_cloud_alt;strokeColor=#232F3E;fillColor=none;verticalAlign=top;align=left;spacingLeft=30;fontColor=#232F3E;dashed=0;container=1;pointerEvents=0;collapsible=0;recursiveResize=0;rounded=1;" parent="1" vertex="1">
          <mxGeometry x="17" y="311" width="1138" height="620" as="geometry" />
        </mxCell>
        <mxCell id="eAze_cKMNu1UkkruvwOf-139" value="" style="edgeStyle=orthogonalEdgeStyle;html=1;endArrow=open;elbow=vertical;startArrow=none;endFill=1;strokeColor=#545B64;rounded=1;snapToPoint=1;" parent="UEzPUAAOIrF-is8g5C7q-2" source="eAze_cKMNu1UkkruvwOf-68" target="UEzPUAAOIrF-is8g5C7q-46" edge="1">
          <mxGeometry width="100" relative="1" as="geometry">
            <mxPoint x="719.63" y="346" as="sourcePoint" />
            <mxPoint x="806.63" y="346" as="targetPoint" />
            <Array as="points">
              <mxPoint x="724" y="336" />
              <mxPoint x="712" y="336" />
            </Array>
          </mxGeometry>
        </mxCell>
        <mxCell id="eAze_cKMNu1UkkruvwOf-144" value="Start Query" style="edgeLabel;html=1;align=center;verticalAlign=middle;resizable=0;points=[];fontSize=10;rounded=1;" parent="eAze_cKMNu1UkkruvwOf-139" vertex="1" connectable="0">
          <mxGeometry x="0.0324" y="-1" relative="1" as="geometry">
            <mxPoint x="-5" y="1" as="offset" />
          </mxGeometry>
        </mxCell>
        <mxCell id="eAze_cKMNu1UkkruvwOf-114" value="" style="html=1;labelBackgroundColor=#ffffff;startArrow=none;startFill=0;startSize=6;endArrow=classic;endFill=1;endSize=6;jettySize=auto;orthogonalLoop=1;strokeWidth=1;dashed=1;fontSize=14;rounded=1;" parent="UEzPUAAOIrF-is8g5C7q-2" source="UEzPUAAOIrF-is8g5C7q-50" target="eAze_cKMNu1UkkruvwOf-33" edge="1">
          <mxGeometry width="60" height="60" relative="1" as="geometry">
            <mxPoint x="109" y="290" as="sourcePoint" />
            <mxPoint x="117" y="406" as="targetPoint" />
          </mxGeometry>
        </mxCell>
        <mxCell id="eAze_cKMNu1UkkruvwOf-134" value="Snappy.parquet" style="edgeLabel;html=1;align=center;verticalAlign=middle;resizable=0;points=[];fontSize=10;rounded=1;" parent="eAze_cKMNu1UkkruvwOf-114" vertex="1" connectable="0">
          <mxGeometry x="-0.1728" relative="1" as="geometry">
            <mxPoint y="14" as="offset" />
          </mxGeometry>
        </mxCell>
        <mxCell id="eAze_cKMNu1UkkruvwOf-115" value="" style="html=1;labelBackgroundColor=#ffffff;startArrow=none;startFill=0;startSize=6;endArrow=classic;endFill=1;endSize=6;jettySize=auto;orthogonalLoop=1;strokeWidth=1;dashed=1;fontSize=14;rounded=1;" parent="UEzPUAAOIrF-is8g5C7q-2" source="UEzPUAAOIrF-is8g5C7q-45" target="UEzPUAAOIrF-is8g5C7q-50" edge="1">
          <mxGeometry width="60" height="60" relative="1" as="geometry">
            <mxPoint x="199" y="392" as="sourcePoint" />
            <mxPoint x="275" y="406" as="targetPoint" />
            <Array as="points">
              <mxPoint x="197" y="318" />
            </Array>
          </mxGeometry>
        </mxCell>
        <mxCell id="eAze_cKMNu1UkkruvwOf-133" value="Json" style="edgeLabel;html=1;align=center;verticalAlign=middle;resizable=0;points=[];fontSize=7;rounded=1;" parent="eAze_cKMNu1UkkruvwOf-115" vertex="1" connectable="0">
          <mxGeometry x="0.3459" y="2" relative="1" as="geometry">
            <mxPoint x="-8" y="12" as="offset" />
          </mxGeometry>
        </mxCell>
        <mxCell id="eAze_cKMNu1UkkruvwOf-113" value="" style="html=1;labelBackgroundColor=#ffffff;startArrow=none;startFill=0;startSize=6;endArrow=classic;endFill=1;endSize=6;jettySize=auto;orthogonalLoop=1;strokeWidth=1;dashed=1;fontSize=14;rounded=1;" parent="UEzPUAAOIrF-is8g5C7q-2" source="eAze_cKMNu1UkkruvwOf-28" target="UEzPUAAOIrF-is8g5C7q-45" edge="1">
          <mxGeometry width="60" height="60" relative="1" as="geometry">
            <mxPoint x="-53" y="459.74" as="sourcePoint" />
            <mxPoint x="70" y="432.2688184438041" as="targetPoint" />
          </mxGeometry>
        </mxCell>
        <mxCell id="eAze_cKMNu1UkkruvwOf-132" value="Json" style="edgeLabel;html=1;align=center;verticalAlign=middle;resizable=0;points=[];fontSize=10;rounded=1;" parent="eAze_cKMNu1UkkruvwOf-113" vertex="1" connectable="0">
          <mxGeometry x="0.2026" y="-2" relative="1" as="geometry">
            <mxPoint as="offset" />
          </mxGeometry>
        </mxCell>
        <mxCell id="UEzPUAAOIrF-is8g5C7q-45" value="Amazon S3" style="outlineConnect=0;fontColor=#232F3E;gradientColor=#60A337;gradientDirection=north;fillColor=#277116;strokeColor=#ffffff;dashed=0;verticalLabelPosition=bottom;verticalAlign=top;align=center;html=1;fontSize=12;fontStyle=0;aspect=fixed;shape=mxgraph.aws4.resourceIcon;resIcon=mxgraph.aws4.s3;labelBackgroundColor=#ffffff;rounded=1;" parent="UEzPUAAOIrF-is8g5C7q-2" vertex="1">
          <mxGeometry x="114" y="385" width="80" height="80" as="geometry" />
        </mxCell>
        <mxCell id="eAze_cKMNu1UkkruvwOf-33" value="Amazon S3" style="outlineConnect=0;fontColor=#232F3E;gradientColor=#60A337;gradientDirection=north;fillColor=#277116;strokeColor=#ffffff;dashed=0;verticalLabelPosition=bottom;verticalAlign=top;align=center;html=1;fontSize=12;fontStyle=0;aspect=fixed;shape=mxgraph.aws4.resourceIcon;resIcon=mxgraph.aws4.s3;labelBackgroundColor=#ffffff;rounded=1;" parent="UEzPUAAOIrF-is8g5C7q-2" vertex="1">
          <mxGeometry x="285.25" y="386" width="80" height="80" as="geometry" />
        </mxCell>
        <mxCell id="UEzPUAAOIrF-is8g5C7q-46" value="Amazon Athena" style="outlineConnect=0;fontColor=#232F3E;gradientColor=#945DF2;gradientDirection=north;fillColor=#5A30B5;strokeColor=#ffffff;dashed=0;verticalLabelPosition=bottom;verticalAlign=top;align=center;html=1;fontSize=12;fontStyle=0;aspect=fixed;shape=mxgraph.aws4.resourceIcon;resIcon=mxgraph.aws4.athena;labelBackgroundColor=#ffffff;rounded=1;" parent="UEzPUAAOIrF-is8g5C7q-2" vertex="1">
          <mxGeometry x="705" y="386" width="80" height="80" as="geometry" />
        </mxCell>
        <mxCell id="eAze_cKMNu1UkkruvwOf-35" value="" style="sketch=0;outlineConnect=0;fontColor=#232F3E;gradientColor=none;fillColor=#4D27AA;strokeColor=none;dashed=0;verticalLabelPosition=bottom;verticalAlign=top;align=center;html=1;fontSize=12;fontStyle=0;aspect=fixed;pointerEvents=1;shape=mxgraph.aws4.glue_crawlers;rounded=1;" parent="UEzPUAAOIrF-is8g5C7q-2" vertex="1">
          <mxGeometry x="508" y="396" width="80" height="80" as="geometry" />
        </mxCell>
        <mxCell id="eAze_cKMNu1UkkruvwOf-23" value="AWS Step Functions workflow" style="points=[[0,0],[0.25,0],[0.5,0],[0.75,0],[1,0],[1,0.25],[1,0.5],[1,0.75],[1,1],[0.75,1],[0.5,1],[0.25,1],[0,1],[0,0.75],[0,0.5],[0,0.25]];outlineConnect=0;gradientColor=none;html=1;whiteSpace=wrap;fontSize=12;fontStyle=0;container=1;pointerEvents=0;collapsible=0;recursiveResize=0;shape=mxgraph.aws4.group;grIcon=mxgraph.aws4.group_aws_step_functions_workflow;strokeColor=#CD2264;fillColor=none;verticalAlign=top;align=left;spacingLeft=30;fontColor=#CD2264;dashed=0;rounded=1;" parent="UEzPUAAOIrF-is8g5C7q-2" vertex="1">
          <mxGeometry x="16" y="111.13" width="1109" height="260" as="geometry" />
        </mxCell>
        <mxCell id="eAze_cKMNu1UkkruvwOf-128" value="" style="html=1;labelBackgroundColor=#ffffff;startArrow=none;startFill=0;startSize=6;endArrow=classic;endFill=1;endSize=6;jettySize=auto;orthogonalLoop=1;strokeWidth=1;dashed=1;fontSize=14;rounded=1;edgeStyle=orthogonalEdgeStyle;elbow=vertical;curved=1;" parent="eAze_cKMNu1UkkruvwOf-23" source="eAze_cKMNu1UkkruvwOf-28" edge="1">
          <mxGeometry width="60" height="60" relative="1" as="geometry">
            <mxPoint x="60" y="126" as="sourcePoint" />
            <mxPoint x="150" y="-15.129999999999995" as="targetPoint" />
            <Array as="points">
              <mxPoint x="140" y="125" />
              <mxPoint x="140" y="5" />
              <mxPoint x="150" y="5" />
            </Array>
          </mxGeometry>
        </mxCell>
        <mxCell id="eAze_cKMNu1UkkruvwOf-131" value="Add" style="edgeLabel;html=1;align=center;verticalAlign=middle;resizable=0;points=[];fontSize=10;rounded=1;" parent="eAze_cKMNu1UkkruvwOf-128" vertex="1" connectable="0">
          <mxGeometry x="0.3629" y="3" relative="1" as="geometry">
            <mxPoint x="3" y="16" as="offset" />
          </mxGeometry>
        </mxCell>
        <mxCell id="eAze_cKMNu1UkkruvwOf-38" value="SES" style="sketch=0;points=[[0,0,0],[0.25,0,0],[0.5,0,0],[0.75,0,0],[1,0,0],[0,1,0],[0.25,1,0],[0.5,1,0],[0.75,1,0],[1,1,0],[0,0.25,0],[0,0.5,0],[0,0.75,0],[1,0.25,0],[1,0.5,0],[1,0.75,0]];outlineConnect=0;fontColor=#232F3E;gradientColor=#FF5252;gradientDirection=north;fillColor=#C7131F;strokeColor=#ffffff;dashed=0;verticalLabelPosition=bottom;verticalAlign=top;align=center;html=1;fontSize=12;fontStyle=0;aspect=fixed;shape=mxgraph.aws4.resourceIcon;resIcon=mxgraph.aws4.simple_email_service;rounded=1;" parent="eAze_cKMNu1UkkruvwOf-23" vertex="1">
          <mxGeometry x="1013" y="89.125" width="80" height="80" as="geometry" />
        </mxCell>
        <mxCell id="eAze_cKMNu1UkkruvwOf-28" value="GHA Ingest&lt;br&gt;Lambda" style="outlineConnect=0;fontColor=#232F3E;gradientColor=#F78E04;gradientDirection=north;fillColor=#D05C17;strokeColor=#ffffff;dashed=0;verticalLabelPosition=bottom;verticalAlign=top;align=center;html=1;fontSize=12;fontStyle=0;aspect=fixed;shape=mxgraph.aws4.resourceIcon;resIcon=mxgraph.aws4.lambda;labelBackgroundColor=#ffffff;rounded=1;" parent="eAze_cKMNu1UkkruvwOf-23" vertex="1">
          <mxGeometry x="40" y="89" width="80.25" height="80.25" as="geometry" />
        </mxCell>
        <mxCell id="eAze_cKMNu1UkkruvwOf-34" value="Update Item" style="sketch=0;points=[[0,0,0],[0.25,0,0],[0.5,0,0],[0.75,0,0],[1,0,0],[0,1,0],[0.25,1,0],[0.5,1,0],[0.75,1,0],[1,1,0],[0,0.25,0],[0,0.5,0],[0,0.75,0],[1,0.25,0],[1,0.5,0],[1,0.75,0]];outlineConnect=0;fontColor=#232F3E;gradientColor=#4D72F3;gradientDirection=north;fillColor=#3334B9;strokeColor=#ffffff;dashed=0;verticalLabelPosition=bottom;verticalAlign=top;align=center;html=1;fontSize=12;fontStyle=0;aspect=fixed;shape=mxgraph.aws4.resourceIcon;resIcon=mxgraph.aws4.dynamodb;rounded=1;" parent="eAze_cKMNu1UkkruvwOf-23" vertex="1">
          <mxGeometry x="373" y="89.125" width="80" height="80" as="geometry" />
        </mxCell>
        <mxCell id="eAze_cKMNu1UkkruvwOf-36" value="Glue" style="sketch=0;points=[[0,0,0],[0.25,0,0],[0.5,0,0],[0.75,0,0],[1,0,0],[0,1,0],[0.25,1,0],[0.5,1,0],[0.75,1,0],[1,1,0],[0,0.25,0],[0,0.5,0],[0,0.75,0],[1,0.25,0],[1,0.5,0],[1,0.75,0]];outlineConnect=0;fontColor=#232F3E;gradientColor=#945DF2;gradientDirection=north;fillColor=#5A30B5;strokeColor=#ffffff;dashed=0;verticalLabelPosition=bottom;verticalAlign=top;align=center;html=1;fontSize=12;fontStyle=0;aspect=fixed;shape=mxgraph.aws4.resourceIcon;resIcon=mxgraph.aws4.glue;rounded=1;" parent="eAze_cKMNu1UkkruvwOf-23" vertex="1">
          <mxGeometry x="540" y="89.125" width="80" height="80" as="geometry" />
        </mxCell>
        <mxCell id="eAze_cKMNu1UkkruvwOf-44" value="Update Item" style="sketch=0;points=[[0,0,0],[0.25,0,0],[0.5,0,0],[0.75,0,0],[1,0,0],[0,1,0],[0.25,1,0],[0.5,1,0],[0.75,1,0],[1,1,0],[0,0.25,0],[0,0.5,0],[0,0.75,0],[1,0.25,0],[1,0.5,0],[1,0.75,0]];outlineConnect=0;fontColor=#232F3E;gradientColor=#4D72F3;gradientDirection=north;fillColor=#3334B9;strokeColor=#ffffff;dashed=0;verticalLabelPosition=bottom;verticalAlign=top;align=center;html=1;fontSize=12;fontStyle=0;aspect=fixed;shape=mxgraph.aws4.resourceIcon;resIcon=mxgraph.aws4.dynamodb;rounded=1;" parent="eAze_cKMNu1UkkruvwOf-23" vertex="1">
          <mxGeometry x="873" y="89.125" width="80" height="80" as="geometry" />
        </mxCell>
        <mxCell id="eAze_cKMNu1UkkruvwOf-68" value="Athena Query&lt;br&gt;Lambda" style="outlineConnect=0;fontColor=#232F3E;gradientColor=#F78E04;gradientDirection=north;fillColor=#D05C17;strokeColor=#ffffff;dashed=0;verticalLabelPosition=bottom;verticalAlign=top;align=center;html=1;fontSize=12;fontStyle=0;aspect=fixed;shape=mxgraph.aws4.resourceIcon;resIcon=mxgraph.aws4.lambda;labelBackgroundColor=#ffffff;rounded=1;" parent="eAze_cKMNu1UkkruvwOf-23" vertex="1">
          <mxGeometry x="707" y="89" width="80.25" height="80.25" as="geometry" />
        </mxCell>
        <mxCell id="eAze_cKMNu1UkkruvwOf-104" value="" style="edgeStyle=orthogonalEdgeStyle;html=1;endArrow=open;elbow=vertical;startArrow=none;endFill=0;strokeColor=#545B64;rounded=1;" parent="eAze_cKMNu1UkkruvwOf-23" source="eAze_cKMNu1UkkruvwOf-28" target="UEzPUAAOIrF-is8g5C7q-50" edge="1">
          <mxGeometry width="100" relative="1" as="geometry">
            <mxPoint x="210" y="245" as="sourcePoint" />
            <mxPoint x="310" y="245" as="targetPoint" />
          </mxGeometry>
        </mxCell>
        <mxCell id="eAze_cKMNu1UkkruvwOf-106" value="" style="edgeStyle=orthogonalEdgeStyle;html=1;endArrow=open;elbow=vertical;startArrow=none;endFill=0;strokeColor=#545B64;rounded=1;entryX=0;entryY=0.5;entryDx=0;entryDy=0;entryPerimeter=0;" parent="eAze_cKMNu1UkkruvwOf-23" source="UEzPUAAOIrF-is8g5C7q-50" target="eAze_cKMNu1UkkruvwOf-34" edge="1">
          <mxGeometry width="100" relative="1" as="geometry">
            <mxPoint x="310" y="35" as="sourcePoint" />
            <mxPoint x="350" y="125" as="targetPoint" />
          </mxGeometry>
        </mxCell>
        <mxCell id="eAze_cKMNu1UkkruvwOf-107" value="" style="edgeStyle=orthogonalEdgeStyle;html=1;endArrow=open;elbow=vertical;startArrow=none;endFill=0;strokeColor=#545B64;rounded=1;entryX=0;entryY=0.5;entryDx=0;entryDy=0;entryPerimeter=0;exitX=1;exitY=0.5;exitDx=0;exitDy=0;exitPerimeter=0;" parent="eAze_cKMNu1UkkruvwOf-23" source="eAze_cKMNu1UkkruvwOf-34" target="eAze_cKMNu1UkkruvwOf-36" edge="1">
          <mxGeometry width="100" relative="1" as="geometry">
            <mxPoint x="430" y="205" as="sourcePoint" />
            <mxPoint x="516" y="205" as="targetPoint" />
          </mxGeometry>
        </mxCell>
        <mxCell id="eAze_cKMNu1UkkruvwOf-108" value="" style="edgeStyle=orthogonalEdgeStyle;html=1;endArrow=open;elbow=vertical;startArrow=none;endFill=0;strokeColor=#545B64;rounded=1;exitX=1;exitY=0.5;exitDx=0;exitDy=0;exitPerimeter=0;" parent="eAze_cKMNu1UkkruvwOf-23" source="eAze_cKMNu1UkkruvwOf-36" target="eAze_cKMNu1UkkruvwOf-68" edge="1">
          <mxGeometry width="100" relative="1" as="geometry">
            <mxPoint x="600" y="215" as="sourcePoint" />
            <mxPoint x="687" y="215" as="targetPoint" />
          </mxGeometry>
        </mxCell>
        <mxCell id="eAze_cKMNu1UkkruvwOf-109" value="" style="edgeStyle=orthogonalEdgeStyle;html=1;endArrow=open;elbow=vertical;startArrow=none;endFill=0;strokeColor=#545B64;rounded=1;exitX=1;exitY=0.5;exitDx=0;exitDy=0;exitPerimeter=0;" parent="eAze_cKMNu1UkkruvwOf-23" edge="1">
          <mxGeometry width="100" relative="1" as="geometry">
            <mxPoint x="787.25" y="128.84" as="sourcePoint" />
            <mxPoint x="874.25" y="128.84" as="targetPoint" />
          </mxGeometry>
        </mxCell>
        <mxCell id="eAze_cKMNu1UkkruvwOf-110" value="" style="edgeStyle=orthogonalEdgeStyle;html=1;endArrow=open;elbow=vertical;startArrow=none;endFill=1;strokeColor=#545B64;rounded=1;exitX=1;exitY=0.5;exitDx=0;exitDy=0;exitPerimeter=0;snapToPoint=1;" parent="eAze_cKMNu1UkkruvwOf-23" edge="1" target="eAze_cKMNu1UkkruvwOf-38">
          <mxGeometry width="100" relative="1" as="geometry">
            <mxPoint x="953" y="128.84" as="sourcePoint" />
            <mxPoint x="1014" y="146.87" as="targetPoint" />
          </mxGeometry>
        </mxCell>
        <mxCell id="UEzPUAAOIrF-is8g5C7q-50" value="Json To Parquet&lt;br&gt;Lambda" style="outlineConnect=0;fontColor=#232F3E;gradientColor=#F78E04;gradientDirection=north;fillColor=#D05C17;strokeColor=#ffffff;dashed=0;verticalLabelPosition=bottom;verticalAlign=top;align=center;html=1;fontSize=12;fontStyle=0;aspect=fixed;shape=mxgraph.aws4.resourceIcon;resIcon=mxgraph.aws4.lambda;labelBackgroundColor=#ffffff;rounded=1;" parent="eAze_cKMNu1UkkruvwOf-23" vertex="1">
          <mxGeometry x="207" y="89" width="80.25" height="80.25" as="geometry" />
        </mxCell>
        <mxCell id="eAze_cKMNu1UkkruvwOf-173" value="" style="html=1;endArrow=open;elbow=vertical;startArrow=none;endFill=1;strokeColor=#545B64;rounded=1;snapToPoint=1;dashed=1;entryX=0;entryY=0.75;entryDx=0;entryDy=0;entryPerimeter=0;edgeStyle=orthogonalEdgeStyle;curved=1;" parent="eAze_cKMNu1UkkruvwOf-23" source="eAze_cKMNu1UkkruvwOf-68" target="eAze_cKMNu1UkkruvwOf-44" edge="1">
          <mxGeometry width="100" relative="1" as="geometry">
            <mxPoint x="950" y="440.87" as="sourcePoint" />
            <mxPoint x="990" y="274.87" as="targetPoint" />
          </mxGeometry>
        </mxCell>
        <mxCell id="eAze_cKMNu1UkkruvwOf-174" value="Query Result" style="edgeLabel;html=1;align=center;verticalAlign=middle;resizable=0;points=[];fontSize=10;rounded=1;" parent="eAze_cKMNu1UkkruvwOf-173" vertex="1" connectable="0">
          <mxGeometry x="0.0324" y="-1" relative="1" as="geometry">
            <mxPoint x="-1" y="-1" as="offset" />
          </mxGeometry>
        </mxCell>
        <mxCell id="eAze_cKMNu1UkkruvwOf-175" value="" style="html=1;endArrow=open;elbow=vertical;startArrow=none;endFill=1;strokeColor=#545B64;rounded=1;snapToPoint=1;dashed=1;entryX=0;entryY=0.75;entryDx=0;entryDy=0;entryPerimeter=0;edgeStyle=orthogonalEdgeStyle;curved=1;" parent="eAze_cKMNu1UkkruvwOf-23" source="eAze_cKMNu1UkkruvwOf-44" target="eAze_cKMNu1UkkruvwOf-38" edge="1">
          <mxGeometry width="100" relative="1" as="geometry">
            <mxPoint x="950" y="149.12" as="sourcePoint" />
            <mxPoint x="1036" y="169.12" as="targetPoint" />
          </mxGeometry>
        </mxCell>
        <mxCell id="eAze_cKMNu1UkkruvwOf-176" value="Query Result" style="edgeLabel;html=1;align=center;verticalAlign=middle;resizable=0;points=[];fontSize=10;rounded=1;" parent="eAze_cKMNu1UkkruvwOf-175" vertex="1" connectable="0">
          <mxGeometry x="0.0324" y="-1" relative="1" as="geometry">
            <mxPoint x="-1" y="-1" as="offset" />
          </mxGeometry>
        </mxCell>
        <mxCell id="eAze_cKMNu1UkkruvwOf-111" value="Sheduled Event" style="sketch=0;points=[[0,0,0],[0.25,0,0],[0.5,0,0],[0.75,0,0],[1,0,0],[0,1,0],[0.25,1,0],[0.5,1,0],[0.75,1,0],[1,1,0],[0,0.25,0],[0,0.5,0],[0,0.75,0],[1,0.25,0],[1,0.5,0],[1,0.75,0]];outlineConnect=0;fontColor=#232F3E;gradientColor=#FF4F8B;gradientDirection=north;fillColor=#BC1356;strokeColor=#ffffff;dashed=0;verticalLabelPosition=bottom;verticalAlign=top;align=center;html=1;fontSize=12;fontStyle=0;aspect=fixed;shape=mxgraph.aws4.resourceIcon;resIcon=mxgraph.aws4.eventbridge;rounded=1;" parent="UEzPUAAOIrF-is8g5C7q-2" vertex="1">
          <mxGeometry x="17" y="445" width="78" height="78" as="geometry" />
        </mxCell>
        <mxCell id="eAze_cKMNu1UkkruvwOf-112" value="" style="edgeStyle=orthogonalEdgeStyle;html=1;endArrow=block;elbow=vertical;startArrow=none;endFill=1;strokeColor=#545B64;rounded=1;" parent="UEzPUAAOIrF-is8g5C7q-2" source="eAze_cKMNu1UkkruvwOf-111" target="eAze_cKMNu1UkkruvwOf-23" edge="1">
          <mxGeometry width="100" relative="1" as="geometry">
            <mxPoint x="386" y="256" as="sourcePoint" />
            <mxPoint x="486" y="256" as="targetPoint" />
            <Array as="points">
              <mxPoint x="20" y="347" />
              <mxPoint x="20" y="347" />
            </Array>
          </mxGeometry>
        </mxCell>
        <mxCell id="eAze_cKMNu1UkkruvwOf-116" value="" style="shape=mxgraph.arrows2.wedgeArrowDashed2;html=1;bendable=0;startWidth=50;stepSize=15;rounded=1;snapToPoint=1;entryX=-0.062;entryY=0.375;entryDx=0;entryDy=0;entryPerimeter=0;comic=0;jiggle=1;" parent="UEzPUAAOIrF-is8g5C7q-2" source="eAze_cKMNu1UkkruvwOf-33" target="eAze_cKMNu1UkkruvwOf-35" edge="1">
          <mxGeometry width="100" height="100" relative="1" as="geometry">
            <mxPoint x="388" y="556" as="sourcePoint" />
            <mxPoint x="488" y="456" as="targetPoint" />
          </mxGeometry>
        </mxCell>
        <mxCell id="eAze_cKMNu1UkkruvwOf-117" value="&lt;font style=&quot;font-size: 10px;&quot;&gt;Craw S3&lt;/font&gt;" style="edgeLabel;html=1;align=center;verticalAlign=middle;resizable=0;points=[];fontSize=10;rounded=1;" parent="eAze_cKMNu1UkkruvwOf-116" vertex="1" connectable="0">
          <mxGeometry x="0.1472" y="1" relative="1" as="geometry">
            <mxPoint as="offset" />
          </mxGeometry>
        </mxCell>
        <mxCell id="eAze_cKMNu1UkkruvwOf-122" value="Item" style="swimlane;horizontal=0;whiteSpace=wrap;html=1;fillColor=#4258da;strokeColor=none;rounded=1;glass=0;fillStyle=auto;separatorColor=#3BB0FF;swimlaneHead=0;swimlaneLine=0;gradientColor=none;swimlaneFillColor=#6a8caf;shadow=0;" parent="UEzPUAAOIrF-is8g5C7q-2" vertex="1">
          <mxGeometry x="86" y="66" width="910" height="30" as="geometry">
            <mxRectangle x="200" y="80" width="40" height="60" as="alternateBounds" />
          </mxGeometry>
        </mxCell>
        <mxCell id="eAze_cKMNu1UkkruvwOf-118" value="" style="sketch=0;outlineConnect=0;fontColor=#232F3E;gradientColor=none;fillColor=#4258da;strokeColor=none;dashed=0;verticalLabelPosition=bottom;verticalAlign=top;align=center;html=1;fontSize=12;fontStyle=0;aspect=fixed;pointerEvents=1;shape=mxgraph.aws4.attribute;rounded=1;" parent="eAze_cKMNu1UkkruvwOf-122" vertex="1">
          <mxGeometry x="331" y="3" width="24" height="24" as="geometry" />
        </mxCell>
        <mxCell id="eAze_cKMNu1UkkruvwOf-120" value="" style="sketch=0;outlineConnect=0;fontColor=#232F3E;gradientColor=none;fillColor=#2E27AD;strokeColor=none;dashed=0;verticalLabelPosition=bottom;verticalAlign=top;align=center;html=1;fontSize=12;fontStyle=0;aspect=fixed;pointerEvents=1;shape=mxgraph.aws4.attribute;rounded=1;" parent="eAze_cKMNu1UkkruvwOf-122" vertex="1">
          <mxGeometry x="830" y="5.5" width="19" height="19" as="geometry" />
        </mxCell>
        <mxCell id="eAze_cKMNu1UkkruvwOf-125" value="" style="sketch=0;outlineConnect=0;fontColor=#232F3E;gradientColor=none;fillColor=#2E27AD;strokeColor=none;dashed=0;verticalLabelPosition=bottom;verticalAlign=top;align=center;html=1;fontSize=12;fontStyle=0;aspect=fixed;pointerEvents=1;shape=mxgraph.aws4.attributes;rounded=1;" parent="eAze_cKMNu1UkkruvwOf-122" vertex="1">
          <mxGeometry x="70" y="3" width="24" height="24" as="geometry" />
        </mxCell>
        <mxCell id="eAze_cKMNu1UkkruvwOf-123" value="" style="sketch=0;points=[[0,0,0],[0.25,0,0],[0.5,0,0],[0.75,0,0],[1,0,0],[0,1,0],[0.25,1,0],[0.5,1,0],[0.75,1,0],[1,1,0],[0,0.25,0],[0,0.5,0],[0,0.75,0],[1,0.25,0],[1,0.5,0],[1,0.75,0]];outlineConnect=0;fontColor=#232F3E;gradientColor=#4D72F3;gradientDirection=north;fillColor=#3334B9;strokeColor=#ffffff;dashed=0;verticalLabelPosition=bottom;verticalAlign=top;align=center;html=1;fontSize=12;fontStyle=0;aspect=fixed;shape=mxgraph.aws4.resourceIcon;resIcon=mxgraph.aws4.dynamodb;rounded=1;" parent="UEzPUAAOIrF-is8g5C7q-2" vertex="1">
          <mxGeometry x="56" y="66" width="30" height="30" as="geometry" />
        </mxCell>
        <mxCell id="eAze_cKMNu1UkkruvwOf-129" value="" style="html=1;labelBackgroundColor=#ffffff;startArrow=none;startFill=0;startSize=6;endArrow=classic;endFill=1;endSize=6;jettySize=auto;orthogonalLoop=1;strokeWidth=1;dashed=1;fontSize=14;rounded=1;edgeStyle=orthogonalEdgeStyle;elbow=vertical;curved=1;entryX=0;entryY=0.5;entryDx=0;entryDy=0;entryPerimeter=0;" parent="UEzPUAAOIrF-is8g5C7q-2" source="eAze_cKMNu1UkkruvwOf-28" target="eAze_cKMNu1UkkruvwOf-123" edge="1">
          <mxGeometry width="60" height="60" relative="1" as="geometry">
            <mxPoint x="16" y="220.13" as="sourcePoint" />
            <mxPoint x="46" y="76" as="targetPoint" />
            <Array as="points">
              <mxPoint x="96" y="148" />
              <mxPoint x="6" y="148" />
              <mxPoint x="6" y="81" />
            </Array>
          </mxGeometry>
        </mxCell>
        <mxCell id="eAze_cKMNu1UkkruvwOf-130" value="Create" style="edgeLabel;html=1;align=center;verticalAlign=middle;resizable=0;points=[];fontSize=10;rounded=1;" parent="eAze_cKMNu1UkkruvwOf-129" vertex="1" connectable="0">
          <mxGeometry x="-0.3452" y="4" relative="1" as="geometry">
            <mxPoint x="23" y="14" as="offset" />
          </mxGeometry>
        </mxCell>
        <mxCell id="eAze_cKMNu1UkkruvwOf-135" value="" style="html=1;labelBackgroundColor=#ffffff;startArrow=none;startFill=0;startSize=6;endArrow=classic;endFill=1;endSize=6;jettySize=auto;orthogonalLoop=1;strokeWidth=1;dashed=1;fontSize=14;rounded=1;exitX=0.5;exitY=0;exitDx=0;exitDy=0;exitPerimeter=0;" parent="UEzPUAAOIrF-is8g5C7q-2" source="eAze_cKMNu1UkkruvwOf-34" target="eAze_cKMNu1UkkruvwOf-118" edge="1">
          <mxGeometry width="60" height="60" relative="1" as="geometry">
            <mxPoint x="428" y="196" as="sourcePoint" />
            <mxPoint x="519" y="105" as="targetPoint" />
          </mxGeometry>
        </mxCell>
        <mxCell id="eAze_cKMNu1UkkruvwOf-136" value="Parquet = Y" style="edgeLabel;html=1;align=center;verticalAlign=middle;resizable=0;points=[];fontSize=10;rounded=1;" parent="eAze_cKMNu1UkkruvwOf-135" vertex="1" connectable="0">
          <mxGeometry x="0.3459" y="2" relative="1" as="geometry">
            <mxPoint x="2" y="18" as="offset" />
          </mxGeometry>
        </mxCell>
        <mxCell id="eAze_cKMNu1UkkruvwOf-137" value="" style="html=1;labelBackgroundColor=#ffffff;startArrow=none;startFill=0;startSize=6;endArrow=classic;endFill=1;endSize=6;jettySize=auto;orthogonalLoop=1;strokeWidth=1;dashed=1;fontSize=14;rounded=1;exitX=0.5;exitY=0;exitDx=0;exitDy=0;exitPerimeter=0;" parent="UEzPUAAOIrF-is8g5C7q-2" source="eAze_cKMNu1UkkruvwOf-44" target="eAze_cKMNu1UkkruvwOf-120" edge="1">
          <mxGeometry width="60" height="60" relative="1" as="geometry">
            <mxPoint x="936" y="200.13" as="sourcePoint" />
            <mxPoint x="936" y="93.13" as="targetPoint" />
          </mxGeometry>
        </mxCell>
        <mxCell id="eAze_cKMNu1UkkruvwOf-138" value="Queryed= Query Result" style="edgeLabel;html=1;align=center;verticalAlign=middle;resizable=0;points=[];fontSize=10;rounded=1;" parent="eAze_cKMNu1UkkruvwOf-137" vertex="1" connectable="0">
          <mxGeometry x="0.3459" y="2" relative="1" as="geometry">
            <mxPoint x="2" y="18" as="offset" />
          </mxGeometry>
        </mxCell>
        <mxCell id="eAze_cKMNu1UkkruvwOf-151" value="" style="html=1;endArrow=blockThin;startArrow=diamondThin;endFill=1;strokeColor=#545B64;rounded=1;snapToPoint=1;startFill=1;" parent="UEzPUAAOIrF-is8g5C7q-2" source="UEzPUAAOIrF-is8g5C7q-46" target="eAze_cKMNu1UkkruvwOf-158" edge="1">
          <mxGeometry width="100" relative="1" as="geometry">
            <mxPoint x="698" y="376" as="sourcePoint" />
            <mxPoint x="581" y="386" as="targetPoint" />
          </mxGeometry>
        </mxCell>
        <mxCell id="eAze_cKMNu1UkkruvwOf-152" value="Query Tables" style="edgeLabel;html=1;align=center;verticalAlign=middle;resizable=0;points=[];fontSize=10;rounded=1;" parent="eAze_cKMNu1UkkruvwOf-151" vertex="1" connectable="0">
          <mxGeometry x="0.0324" y="-1" relative="1" as="geometry">
            <mxPoint x="6" y="1" as="offset" />
          </mxGeometry>
        </mxCell>
        <mxCell id="eAze_cKMNu1UkkruvwOf-156" value="" style="edgeStyle=orthogonalEdgeStyle;html=1;endArrow=open;elbow=vertical;startArrow=none;endFill=1;strokeColor=#545B64;rounded=1;snapToPoint=1;exitX=0.25;exitY=1;exitDx=0;exitDy=0;exitPerimeter=0;strokeWidth=1;" parent="UEzPUAAOIrF-is8g5C7q-2" source="eAze_cKMNu1UkkruvwOf-36" target="eAze_cKMNu1UkkruvwOf-35" edge="1">
          <mxGeometry width="100" relative="1" as="geometry">
            <mxPoint x="553" y="290" as="sourcePoint" />
            <mxPoint x="483" y="416" as="targetPoint" />
            <Array as="points">
              <mxPoint x="576" y="346" />
              <mxPoint x="520" y="346" />
            </Array>
          </mxGeometry>
        </mxCell>
        <mxCell id="eAze_cKMNu1UkkruvwOf-157" value="Start Crawler" style="edgeLabel;html=1;align=center;verticalAlign=middle;resizable=0;points=[];fontSize=10;rounded=1;" parent="eAze_cKMNu1UkkruvwOf-156" vertex="1" connectable="0">
          <mxGeometry x="0.0324" y="-1" relative="1" as="geometry">
            <mxPoint x="5" y="1" as="offset" />
          </mxGeometry>
        </mxCell>
        <mxCell id="eAze_cKMNu1UkkruvwOf-158" value="" style="sketch=0;outlineConnect=0;fontColor=#232F3E;gradientColor=none;fillColor=#4d27aa;strokeColor=none;dashed=0;verticalLabelPosition=bottom;verticalAlign=top;align=center;html=1;fontSize=12;fontStyle=0;aspect=fixed;pointerEvents=1;shape=mxgraph.aws4.table;rounded=1;" parent="UEzPUAAOIrF-is8g5C7q-2" vertex="1">
          <mxGeometry x="524" y="516" width="48" height="48" as="geometry" />
        </mxCell>
        <mxCell id="eAze_cKMNu1UkkruvwOf-161" value="" style="endArrow=none;dashed=1;html=1;rounded=1;dashPattern=1 1;endFill=0;startArrow=open;startFill=0;" parent="UEzPUAAOIrF-is8g5C7q-2" source="eAze_cKMNu1UkkruvwOf-158" target="eAze_cKMNu1UkkruvwOf-35" edge="1">
          <mxGeometry width="50" height="50" relative="1" as="geometry">
            <mxPoint x="468" y="566" as="sourcePoint" />
            <mxPoint x="518" y="516" as="targetPoint" />
          </mxGeometry>
        </mxCell>
        <mxCell id="eAze_cKMNu1UkkruvwOf-167" value="" style="html=1;endArrow=open;elbow=vertical;startArrow=none;endFill=1;strokeColor=#545B64;rounded=1;snapToPoint=1;dashed=1;" parent="UEzPUAAOIrF-is8g5C7q-2" source="UEzPUAAOIrF-is8g5C7q-46" target="eAze_cKMNu1UkkruvwOf-68" edge="1">
          <mxGeometry width="100" relative="1" as="geometry">
            <mxPoint x="836" y="383" as="sourcePoint" />
            <mxPoint x="766" y="509" as="targetPoint" />
            <Array as="points">
              <mxPoint x="763" y="446" />
            </Array>
          </mxGeometry>
        </mxCell>
        <mxCell id="eAze_cKMNu1UkkruvwOf-168" value="Query Result" style="edgeLabel;html=1;align=center;verticalAlign=middle;resizable=0;points=[];fontSize=10;rounded=1;" parent="eAze_cKMNu1UkkruvwOf-167" vertex="1" connectable="0">
          <mxGeometry x="0.0324" y="-1" relative="1" as="geometry">
            <mxPoint x="-1" y="66" as="offset" />
          </mxGeometry>
        </mxCell>
        <mxCell id="-QjtrjUzRDEMRZ5MF8oH-47" value="GHA Hourly Analisis Pipeline" style="text;html=1;resizable=0;points=[];autosize=1;align=left;verticalAlign=top;spacingTop=-4;fontSize=30;fontStyle=1;rounded=1;" parent="1" vertex="1">
          <mxGeometry x="12" y="65.5" width="440" height="40" as="geometry" />
        </mxCell>
        <mxCell id="-QjtrjUzRDEMRZ5MF8oH-48" value="Git Hub Activity Analisis Pipeline" style="text;html=1;resizable=0;points=[];autosize=1;align=left;verticalAlign=top;spacingTop=-4;fontSize=16;rounded=1;" parent="1" vertex="1">
          <mxGeometry x="12" y="115.5" width="250" height="30" as="geometry" />
        </mxCell>
        <mxCell id="SCVMTBWpLvtzJIhz15lM-1" value="" style="line;strokeWidth=2;html=1;fontSize=14;rounded=1;" parent="1" vertex="1">
          <mxGeometry x="8" y="140.5" width="1149" height="10" as="geometry" />
        </mxCell>
        <mxCell id="eAze_cKMNu1UkkruvwOf-42" value="Email" style="shape=image;html=1;verticalAlign=top;verticalLabelPosition=bottom;labelBackgroundColor=#ffffff;imageAspect=0;aspect=fixed;image=https://cdn4.iconfinder.com/data/icons/user-interface-681/64/Mail-128.png;rounded=1;" parent="1" vertex="1">
          <mxGeometry x="1004" y="165" width="125" height="125" as="geometry" />
        </mxCell>
        <mxCell id="eAze_cKMNu1UkkruvwOf-25" value="Git Hub Activty Data Provisioner&amp;nbsp;" style="points=[[0,0],[0.25,0],[0.5,0],[0.75,0],[1,0],[1,0.25],[1,0.5],[1,0.75],[1,1],[0.75,1],[0.5,1],[0.25,1],[0,1],[0,0.75],[0,0.5],[0,0.25]];outlineConnect=0;gradientColor=none;html=1;whiteSpace=wrap;fontSize=12;fontStyle=0;container=1;pointerEvents=0;collapsible=0;recursiveResize=0;shape=mxgraph.aws4.group;grIcon=mxgraph.aws4.group_on_premise;strokeColor=#5A6C86;fillColor=none;verticalAlign=top;align=left;spacingLeft=30;fontColor=#5A6C86;dashed=0;rounded=1;" parent="1" vertex="1">
          <mxGeometry x="62" y="158" width="128" height="142" as="geometry" />
        </mxCell>
        <mxCell id="eAze_cKMNu1UkkruvwOf-27" value="GHA Data" style="sketch=0;outlineConnect=0;fontColor=#232F3E;gradientColor=none;fillColor=#3F8624;strokeColor=none;dashed=0;verticalLabelPosition=bottom;verticalAlign=top;align=center;html=1;fontSize=12;fontStyle=0;aspect=fixed;pointerEvents=1;shape=mxgraph.aws4.data_set;rounded=1;" parent="eAze_cKMNu1UkkruvwOf-25" vertex="1">
          <mxGeometry x="33" y="43" width="59.97" height="74.25" as="geometry" />
        </mxCell>
        <mxCell id="eAze_cKMNu1UkkruvwOf-99" value="" style="html=1;labelBackgroundColor=#ffffff;startArrow=none;startFill=1;startSize=6;endArrow=classic;endFill=1;endSize=6;jettySize=auto;orthogonalLoop=1;strokeWidth=1;dashed=1;fontSize=14;rounded=1;snapToPoint=1;comic=0;edgeStyle=elbowEdgeStyle;" parent="1" source="eAze_cKMNu1UkkruvwOf-27" edge="1" target="eAze_cKMNu1UkkruvwOf-28">
          <mxGeometry width="60" height="60" relative="1" as="geometry">
            <mxPoint x="9" y="523" as="sourcePoint" />
            <mxPoint x="179" y="413" as="targetPoint" />
            <Array as="points">
              <mxPoint x="12" y="391" />
            </Array>
          </mxGeometry>
        </mxCell>
        <mxCell id="eAze_cKMNu1UkkruvwOf-100" value="Gzip" style="edgeLabel;html=1;align=center;verticalAlign=middle;resizable=0;points=[];rounded=1;" parent="eAze_cKMNu1UkkruvwOf-99" vertex="1" connectable="0">
          <mxGeometry x="-0.2315" relative="1" as="geometry">
            <mxPoint x="36" y="189" as="offset" />
          </mxGeometry>
        </mxCell>
        <mxCell id="eAze_cKMNu1UkkruvwOf-154" value="" style="html=1;labelBackgroundColor=#ffffff;startArrow=none;startFill=1;startSize=6;endArrow=classic;endFill=1;endSize=6;jettySize=auto;orthogonalLoop=1;strokeWidth=1;dashed=1;fontSize=14;rounded=1;edgeStyle=elbowEdgeStyle;snapToPoint=1;entryX=1.013;entryY=0.503;entryDx=0;entryDy=0;entryPerimeter=0;" parent="1" source="eAze_cKMNu1UkkruvwOf-38" target="eAze_cKMNu1UkkruvwOf-42" edge="1">
          <mxGeometry width="60" height="60" relative="1" as="geometry">
            <mxPoint x="1133" y="440" as="sourcePoint" />
            <mxPoint x="1389" y="503" as="targetPoint" />
            <Array as="points">
              <mxPoint x="1149" y="389" />
            </Array>
          </mxGeometry>
        </mxCell>
        <mxCell id="eAze_cKMNu1UkkruvwOf-155" value="Send Email&lt;br&gt;With Query Result" style="edgeLabel;html=1;align=center;verticalAlign=middle;resizable=0;points=[];fontSize=7;rounded=1;" parent="eAze_cKMNu1UkkruvwOf-154" vertex="1" connectable="0">
          <mxGeometry x="0.3459" y="2" relative="1" as="geometry">
            <mxPoint x="38" y="95" as="offset" />
          </mxGeometry>
        </mxCell>
        <mxCell id="goMLM4HKvgX8Tpthe-Ci-3" value="" style="endArrow=classicThin;html=1;rounded=0;strokeColor=#619898;strokeWidth=10;dashed=1;dashPattern=1 4;endFill=1;" edge="1" parent="1" source="eAze_cKMNu1UkkruvwOf-25" target="eAze_cKMNu1UkkruvwOf-42">
          <mxGeometry width="50" height="50" relative="1" as="geometry">
            <mxPoint x="401" y="321" as="sourcePoint" />
            <mxPoint x="451" y="271" as="targetPoint" />
          </mxGeometry>
        </mxCell>
        <mxCell id="goMLM4HKvgX8Tpthe-Ci-4" value="Hourly Analisis" style="edgeLabel;html=1;align=center;verticalAlign=middle;resizable=0;points=[];fontSize=30;" vertex="1" connectable="0" parent="goMLM4HKvgX8Tpthe-Ci-3">
          <mxGeometry x="-0.0648" y="2" relative="1" as="geometry">
            <mxPoint x="1" as="offset" />
          </mxGeometry>
        </mxCell>
      </root>
    </mxGraphModel>
  </diagram>
</mxfile>
